<svg width="274" height="274" viewBox="0 0 274 274" fill="none" xmlns="http://www.w3.org/2000/svg">
<path d="M274 137C274 212.663 212.663 274 137 274C61.337 274 0 212.663 0 137C0 61.337 61.337 0 137 0C212.663 0 274 61.337 274 137Z" fill="#1A1D24"/>
<path d="M170.688 133.062C173.979 133.062 177.25 133.292 180.5 133.75C183.792 134.167 186.938 134.688 189.938 135.312C192.979 135.896 195.854 136.479 198.562 137.062C201.271 137.646 203.708 138.062 205.875 138.312C205.375 139.812 205.125 142.458 205.125 146.25C205.125 153.625 206.229 160.021 208.438 165.438C208.188 166.188 207.417 166.646 206.125 166.812L203.438 161.062C202.104 158.188 200.5 155.354 198.625 152.562C196.75 149.729 194.5 147.208 191.875 145C189.25 142.75 186.188 140.938 182.688 139.562C179.229 138.188 175.229 137.5 170.688 137.5C166.771 137.5 163.292 138.146 160.25 139.438C157.208 140.729 154.542 142.479 152.25 144.688C149.958 146.854 148.021 149.396 146.438 152.312C144.854 155.188 143.562 158.25 142.562 161.5C141.604 164.75 140.896 168.083 140.438 171.5C140.021 174.917 139.812 178.229 139.812 181.438C139.812 186.771 140.5 191.875 141.875 196.75C143.292 201.625 145.479 205.938 148.438 209.688C151.396 213.396 155.146 216.354 159.688 218.562C164.271 220.771 169.729 221.875 176.062 221.875C188.188 221.875 197.354 218.083 203.562 210.5C204.229 210.5 204.771 210.688 205.188 211.062C205.646 211.438 205.875 211.896 205.875 212.438C203.875 215.396 201.438 217.958 198.562 220.125C195.729 222.292 192.708 224.083 189.5 225.5C186.292 226.875 183.042 227.896 179.75 228.562C176.5 229.229 173.479 229.562 170.688 229.562C167.646 229.562 164.354 229.229 160.812 228.562C157.312 227.938 153.792 226.875 150.25 225.375C146.75 223.875 143.375 221.917 140.125 219.5C136.917 217.042 134.062 214.042 131.562 210.5C129.062 206.917 127.062 202.729 125.562 197.938C124.062 193.146 123.312 187.646 123.312 181.438C123.312 175.188 124.062 169.667 125.562 164.875C127.062 160.042 129.062 155.833 131.562 152.25C134.104 148.667 137 145.667 140.25 143.25C143.542 140.792 146.938 138.812 150.438 137.312C153.938 135.771 157.438 134.688 160.938 134.062C164.438 133.396 167.688 133.062 170.688 133.062Z" fill="white"/>
<path d="M67.875 49.125C77.2083 49.4583 84.4583 49.625 89.625 49.625C94.7917 49.625 102.042 49.4583 111.375 49.125C111.542 49.7917 111.625 50.25 111.625 50.5C111.625 50.7917 111.542 51.3125 111.375 52.0625C109.458 52.2292 107.896 52.4167 106.688 52.625C105.521 52.7917 104.062 53.0833 102.312 53.5C100.604 53.9167 99.2917 54.5208 98.375 55.3125C97.4583 56.0625 96.9792 56.9792 96.9375 58.0625C96.3958 72.2292 96.125 85.4167 96.125 97.625C96.125 103.917 96.3542 117.104 96.8125 137.188H116.125C122.25 136.771 127.729 135.875 132.562 134.5C137.396 133.125 141.417 131.375 144.625 129.25C147.875 127.083 150.542 124.854 152.625 122.562C154.75 120.229 156.583 117.625 158.125 114.75C159.208 115.167 159.917 115.729 160.25 116.438C158.542 119.604 157.208 122.167 156.25 124.125C155.333 126.083 154.312 128.667 153.188 131.875C152.104 135.042 151.396 138.083 151.062 141H96.8125C85.5208 141 75.8333 141.125 67.75 141.375C67.5833 140.875 67.5 140.458 67.5 140.125C67.5 139.833 67.5833 139.271 67.75 138.438C69.6667 138.271 71.2083 138.104 72.375 137.938C73.5833 137.729 75.0417 137.417 76.75 137C78.5 136.583 79.8333 136 80.75 135.25C81.6667 134.458 82.1458 133.521 82.1875 132.438C82.6875 119.396 82.9375 106.25 82.9375 93C82.9375 79.5 82.7292 67.8542 82.3125 58.0625C82.2708 56.9792 81.7917 56.0625 80.875 55.3125C79.9583 54.5208 78.625 53.9167 76.875 53.5C75.1667 53.0833 73.7083 52.7917 72.5 52.625C71.3333 52.4167 69.7917 52.2292 67.875 52.0625C67.7083 51.3125 67.625 50.7917 67.625 50.5C67.625 50.0833 67.7083 49.625 67.875 49.125Z" fill="white"/>
</svg>
